name ./resultDataOpenSim/trcMotMarkerGrf/sub06/grf-15-05.mot
datacolumns 19
datarows 22
range 0.51200000 0.59600000
endheader

                time	     ground_force_vx	     ground_force_vy	     ground_force_vz	     ground_force_px	     ground_force_py	     ground_force_pz	   l_ground_force_vx	   l_ground_force_vy	   l_ground_force_vz	   l_ground_force_px	   l_ground_force_py	   l_ground_force_pz	     ground_torque_x	     ground_torque_y	     ground_torque_z	   l_ground_torque_x	   l_ground_torque_y	   l_ground_torque_z	
          0.51200000	         43.41592673	        423.05686554	        -20.07313842	         -0.71392015	          0.00000000	          0.06099561	          0.00000000	          0.00000000	          0.00000000	          0.00000000	          0.00000000	          0.00000000	          0.00000000	          1.43608473	          0.00000000	          0.00000000	          0.00000000	          0.00000000	
          0.51600000	         46.91287679	        439.49996840	        -19.14555143	         -0.71374892	          0.00000000	          0.06066219	          0.00000000	          0.00000000	          0.00000000	          0.00000000	          0.00000000	          0.00000000	          0.00000000	          1.69120650	          0.00000000	          0.00000000	          0.00000000	          0.00000000	
          0.52000000	         50.23796928	        456.24041859	        -18.55609821	         -0.71352924	          0.00000000	          0.06035679	          0.00000000	          0.00000000	          0.00000000	          0.00000000	          0.00000000	          0.00000000	          0.00000000	          1.92424604	          0.00000000	          0.00000000	          0.00000000	          0.00000000	
          0.52400000	         53.42728098	        473.13503081	        -18.52408186	         -0.71325137	          0.00000000	          0.06010034	          0.00000000	          0.00000000	          0.00000000	          0.00000000	          0.00000000	          0.00000000	          0.00000000	          2.10387052	          0.00000000	          0.00000000	          0.00000000	          0.00000000	
          0.52800000	         56.61238316	        490.05534265	        -19.15219242	         -0.71293159	          0.00000000	          0.05990403	          0.00000000	          0.00000000	          0.00000000	          0.00000000	          0.00000000	          0.00000000	          0.00000000	          2.21014297	          0.00000000	          0.00000000	          0.00000000	          0.00000000	
          0.53200000	         59.98786589	        506.89816807	        -20.41152181	         -0.71259178	          0.00000000	          0.05977006	          0.00000000	          0.00000000	          0.00000000	          0.00000000	          0.00000000	          0.00000000	          0.00000000	          2.23807977	          0.00000000	          0.00000000	          0.00000000	          0.00000000	
          0.53600000	         63.76097788	        523.59948029	        -22.15175273	         -0.71225329	          0.00000000	          0.05969358	          0.00000000	          0.00000000	          0.00000000	          0.00000000	          0.00000000	          0.00000000	          0.00000000	          2.19834701	          0.00000000	          0.00000000	          0.00000000	          0.00000000	
          0.54000000	         68.08558511	        540.15548490	        -24.13917077	         -0.71194273	          0.00000000	          0.05965610	          0.00000000	          0.00000000	          0.00000000	          0.00000000	          0.00000000	          0.00000000	          0.00000000	          2.11485659	          0.00000000	          0.00000000	          0.00000000	          0.00000000	
          0.54400000	         73.00551940	        556.61952571	        -26.11764556	         -0.71170279	          0.00000000	          0.05962272	          0.00000000	          0.00000000	          0.00000000	          0.00000000	          0.00000000	          0.00000000	          0.00000000	          2.01954213	          0.00000000	          0.00000000	          0.00000000	          0.00000000	
          0.54800000	         78.45292021	        573.01896677	        -27.86128147	         -0.71158676	          0.00000000	          0.05956312	          0.00000000	          0.00000000	          0.00000000	          0.00000000	          0.00000000	          0.00000000	          0.00000000	          1.94526453	          0.00000000	          0.00000000	          0.00000000	          0.00000000	
          0.55200000	         84.29226442	        589.23159954	        -29.19848353	         -0.71158665	          0.00000000	          0.05947518	          0.00000000	          0.00000000	          0.00000000	          0.00000000	          0.00000000	          0.00000000	          0.00000000	          1.91845685	          0.00000000	          0.00000000	          0.00000000	          0.00000000	
          0.55600000	         90.35287563	        604.99733934	        -30.03657972	         -0.71159016	          0.00000000	          0.05938421	          0.00000000	          0.00000000	          0.00000000	          0.00000000	          0.00000000	          0.00000000	          0.00000000	          1.95335660	          0.00000000	          0.00000000	          0.00000000	          0.00000000	
          0.56000000	         96.46043941	        620.12781461	        -30.39904224	         -0.71146292	          0.00000000	          0.05931463	          0.00000000	          0.00000000	          0.00000000	          0.00000000	          0.00000000	          0.00000000	          0.00000000	          2.04920257	          0.00000000	          0.00000000	          0.00000000	          0.00000000	
          0.56400000	        102.50324846	        634.68563139	        -30.43014364	         -0.71118608	          0.00000000	          0.05926002	          0.00000000	          0.00000000	          0.00000000	          0.00000000	          0.00000000	          0.00000000	          0.00000000	          2.19083755	          0.00000000	          0.00000000	          0.00000000	          0.00000000	
          0.56800000	        108.47396285	        648.89573938	        -30.34556007	         -0.71087611	          0.00000000	          0.05918775	          0.00000000	          0.00000000	          0.00000000	          0.00000000	          0.00000000	          0.00000000	          0.00000000	          2.35233221	          0.00000000	          0.00000000	          0.00000000	          0.00000000	
          0.57200000	        114.42046213	        662.87116857	        -30.36684529	         -0.71064106	          0.00000000	          0.05907588	          0.00000000	          0.00000000	          0.00000000	          0.00000000	          0.00000000	          0.00000000	          0.00000000	          2.50280631	          0.00000000	          0.00000000	          0.00000000	          0.00000000	
          0.57600000	        120.37249986	        676.44038839	        -30.67075994	         -0.71045572	          0.00000000	          0.05893636	          0.00000000	          0.00000000	          0.00000000	          0.00000000	          0.00000000	          0.00000000	          0.00000000	          2.61334114	          0.00000000	          0.00000000	          0.00000000	          0.00000000	
          0.58000000	        126.34272107	        689.23913968	        -31.35598952	         -0.71018796	          0.00000000	          0.05880037	          0.00000000	          0.00000000	          0.00000000	          0.00000000	          0.00000000	          0.00000000	          0.00000000	          2.66354928	          0.00000000	          0.00000000	          0.00000000	          0.00000000	
          0.58400000	        132.37018170	        700.97349574	        -32.42170314	         -0.70975095	          0.00000000	          0.05868972	          0.00000000	          0.00000000	          0.00000000	          0.00000000	          0.00000000	          0.00000000	          0.00000000	          2.64623876	          0.00000000	          0.00000000	          0.00000000	          0.00000000	
          0.58800000	        138.52126107	        711.59691046	        -33.75476049	         -0.70920874	          0.00000000	          0.05859291	          0.00000000	          0.00000000	          0.00000000	          0.00000000	          0.00000000	          0.00000000	          0.00000000	          2.56897049	          0.00000000	          0.00000000	          0.00000000	          0.00000000	
          0.59200000	        144.84304660	        721.21158768	        -35.15095875	         -0.70870324	          0.00000000	          0.05847484	          0.00000000	          0.00000000	          0.00000000	          0.00000000	          0.00000000	          0.00000000	          0.00000000	          2.45208446	          0.00000000	          0.00000000	          0.00000000	          0.00000000	
          0.59600000	        151.32541039	        729.81040726	        -36.37635570	         -0.70830055	          0.00000000	          0.05831166	          0.00000000	          0.00000000	          0.00000000	          0.00000000	          0.00000000	          0.00000000	          0.00000000	          2.32370065	          0.00000000	          0.00000000	          0.00000000	          0.00000000	
